<!-- Generated by IcoMoon.io -->
<svg version="1.1" xmlns="http://www.w3.org/2000/svg" width="32" height="32" viewBox="0 0 32 32">
<title>add-bookmark</title>
<path d="M8.063-0.125v31.625l7.938-5.25 7.938 5.25v-31.625zM20.938 9.938c0 0.25-0.125 0.313-0.313 0.313h-3.375v3.375c0 0.188-0.125 0.313-0.313 0.313h-1.813c-0.25 0-0.313-0.125-0.313-0.313v-3.375h-3.375c-0.25 0-0.313-0.063-0.313-0.313v-1.813c0-0.188 0.063-0.313 0.313-0.313h3.313v-3.375c0-0.188 0.125-0.313 0.313-0.313h1.813c0.25 0 0.313 0.125 0.313 0.313v3.375h3.375c0.188 0 0.313 0.063 0.313 0.25v1.875z"></path>
</svg>
