<!-- Generated by IcoMoon.io -->
<svg version="1.1" xmlns="http://www.w3.org/2000/svg" width="32" height="32" viewBox="0 0 32 32">
<title>close</title>
<path d="M31.688 25.375c0 0 0 0 0 0l-9.688-9.688 9.688-9.688c0 0 0 0 0 0 0.125-0.125 0.188-0.25 0.25-0.375 0.125-0.375 0.063-0.75-0.25-1.063l-4.563-4.563c-0.313-0.313-0.688-0.375-1.063-0.25-0.125 0.063-0.25 0.125-0.375 0.25 0 0 0 0 0 0l-9.688 9.688-9.688-9.688c0 0 0 0 0 0-0.125-0.125-0.25-0.188-0.375-0.25-0.375-0.125-0.75-0.063-1.063 0.25l-4.563 4.563c-0.313 0.313-0.375 0.688-0.25 1.063 0.063 0.125 0.125 0.25 0.25 0.375 0 0 0 0 0 0l9.688 9.688-9.688 9.688c0 0 0 0 0 0-0.125 0.125-0.188 0.25-0.25 0.375-0.125 0.375-0.063 0.75 0.25 1.063l4.563 4.563c0.313 0.313 0.688 0.375 1.063 0.25 0.125-0.063 0.25-0.125 0.375-0.25 0 0 0 0 0 0l9.688-9.688 9.688 9.688c0 0 0 0 0 0 0.125 0.125 0.25 0.188 0.375 0.25 0.375 0.125 0.75 0.063 1.063-0.25l4.563-4.563c0.313-0.313 0.375-0.688 0.25-1.063-0.063-0.125-0.125-0.25-0.25-0.375z"></path>
</svg>
