<!-- Generated by IcoMoon.io -->
<svg version="1.1" xmlns="http://www.w3.org/2000/svg" width="32" height="32" viewBox="0 0 32 32">
<title>draw-polygon</title>
<path d="M32 4v-4.188h-4.188v1.5l-20.75 1.563v-1.188h-4.188v4.188h1.125l-2.375 21.5h-1.625v4.188h4.188v-1.625l13-1.813v1.063h4.188v-2.938l5.813-4.875h3.5v-4.188h-1.188l0.938-13.188h1.563zM4.063 2.875h1.813v1.813h-1.813zM3 30.313h-1.75v-1.75h1.75v1.75zM20.125 27.938h-1.75v-1.75h1.75zM26.5 17.188v2.938l-5.875 4.813h-3.438v1.688l-13 1.813v-1.063h-1.125l2.375-21.5h1.625v-1.563l20.75-1.5v1.188h1.188l-0.938 13.188zM29.5 20.188h-1.813v-1.813h1.813zM29 2.813v-1.75h1.813v1.75h-1.813z"></path>
</svg>
