<!-- Generated by IcoMoon.io -->
<svg version="1.1" xmlns="http://www.w3.org/2000/svg" width="32" height="32" viewBox="0 0 32 32">
<title>draw-tool</title>
<path d="M27.125 16.188v2.938l-5.813 4.875h-3.5v1.625l-12.938 1.813v-1.063h-4.25v4.188h4.25v-1.625l12.938-1.813v1.063h4.188v-2.875l5.875-4.875h3.5v-4.25zM3.625 29.375h-1.75v-1.813h1.75zM20.813 26.938h-1.813v-1.688h1.813zM30.125 19.188h-1.75v-1.75h1.75zM23.125 10.875l-4.625-4.563-13.5 13.5v4.563h4.625zM26.625 7.313c0.438-0.438 0.438-1.25 0-1.688l-2.875-2.875c-0.438-0.5-1.25-0.5-1.688 0l-2.25 2.188 4.563 4.625z"></path>
</svg>
