<!-- Generated by IcoMoon.io -->
<svg version="1.1" xmlns="http://www.w3.org/2000/svg" width="32" height="32" viewBox="0 0 32 32">
<title>feedback</title>
<path d="M16 5.688c-1.688 0-3.375 0.25-4.938 0.813-1.438 0.5-2.75 1.188-3.875 2.125-2.063 1.625-3.188 3.813-3.188 6.063 0 1.25 0.375 2.5 1.063 3.625 0.688 1.188 1.75 2.25 3.063 3.125 0.938 0.625 1.625 1.625 1.75 2.75 0.063 0.375 0.125 0.75 0.125 1.125 0.25-0.188 0.438-0.375 0.688-0.625 0.75-0.75 1.75-1.188 2.813-1.188 0.188 0 0.313 0.063 0.5 0.063 0.688 0.063 1.313 0.125 2 0.125 1.688 0 3.375-0.25 4.938-0.813 1.438-0.5 2.75-1.188 3.875-2.125 2.063-1.625 3.188-3.813 3.188-6.063s-1.125-4.438-3.188-6.063c-1.125-0.938-2.438-1.625-3.875-2.125-1.563-0.563-3.25-0.813-4.938-0.813zM16 1.688c8.813 0 16 5.813 16 13s-7.188 13-16 13c-0.875 0-1.688-0.063-2.5-0.188-3.438 3.438-7.563 4.063-11.5 4.188v-0.875c2.125-1 4-2.938 4-5.125 0-0.313 0-0.625-0.063-0.875-3.625-2.375-5.938-6.063-5.938-10.125 0-7.188 7.188-13 16-13z"></path>
</svg>
