<!-- Generated by IcoMoon.io -->
<svg version="1.1" xmlns="http://www.w3.org/2000/svg" width="32" height="32" viewBox="0 0 32 32">
<title>info</title>
<path d="M14 9.188c0-0.813 0.688-1.5 1.5-1.5h1c0.813 0 1.5 0.688 1.5 1.5v1c0 0.813-0.688 1.5-1.5 1.5h-1c-0.813 0-1.5-0.688-1.5-1.5zM20 23.688h-8v-2h2v-6h-2v-2h6v8h2zM16-0.313c-8.813 0-16 7.188-16 16s7.188 16 16 16c8.813 0 16-7.188 16-16s-7.188-16-16-16zM16 28.688c-7.188 0-13-5.813-13-13s5.813-13 13-13c7.188 0 13 5.813 13 13s-5.813 13-13 13z"></path>
</svg>
