<!-- Generated by IcoMoon.io -->
<svg version="1.1" xmlns="http://www.w3.org/2000/svg" width="32" height="32" viewBox="0 0 32 32">
<title>question</title>
<path d="M14 21.688h4v4h-4zM22 7.688c1.125 0 2 0.875 2 2v6l-6 4h-4v-2l6-4v-2h-10v-4zM16 2.688c-3.5 0-6.75 1.375-9.188 3.813s-3.813 5.688-3.813 9.188c0 3.5 1.375 6.75 3.813 9.188s5.688 3.813 9.188 3.813c3.5 0 6.75-1.375 9.188-3.813s3.813-5.688 3.813-9.188c0-3.5-1.375-6.75-3.813-9.188s-5.688-3.813-9.188-3.813zM16-0.313c8.813 0 16 7.188 16 16s-7.188 16-16 16c-8.813 0-16-7.188-16-16s7.188-16 16-16z"></path>
</svg>
