<!-- Generated by IcoMoon.io -->
<svg version="1.1" xmlns="http://www.w3.org/2000/svg" width="32" height="32" viewBox="0 0 32 32">
<title>redraw-last</title>
<path d="M32.188 4.125v-4.188h-4.25v3.313l-2.063 2.188c-1.063-1-2.25-1.813-3.688-2.438-1.563-0.625-3.188-0.938-4.938-0.938-1.563 0-3.063 0.25-4.5 0.813s-2.688 1.313-3.75 2.25c-1.125 1-2.063 2.125-2.75 3.438-0.75 1.313-1.188 2.75-1.438 4.25h-4.625l6.25 7.25 6.313-7.188h-5.188c0.125-1 0.438-1.938 0.938-2.813 0.5-0.938 1.063-1.688 1.75-2.438 0.938-0.938 2.063-1.625 3.25-2.188 1.188-0.438 2.438-0.688 3.813-0.688 1.313 0 2.563 0.25 3.813 0.688 1.063 0.5 2.063 1.125 2.938 2l-2.375 2.563h-3.063v3.25l-7.875 8.25h-3.063v2.875l-4 3.125h-3.5v4.188h4.188v-2.875l3.938-3.125h3.563v-3.188l7.813-8.313h3.125v-3.313l2.25-2.375c0.563 0.688 1 1.5 1.375 2.375 0.5 1.188 0.75 2.438 0.75 3.813 0 1.313-0.25 2.563-0.75 3.813-0.5 1.188-1.25 2.25-2.188 3.188s-2 1.625-3.188 2.188c-1.188 0.5-2.438 0.75-3.813 0.75v2.688c1.75 0 3.375-0.313 4.938-0.938 1.5-0.688 2.875-1.563 4-2.75 1.125-1.125 2-2.5 2.688-4s1-3.188 1-4.938c0-1.75-0.313-3.375-1-4.875-0.5-1.188-1.188-2.313-2-3.25l2.188-2.375h3.125zM29.188 1.938v-0.75h1.75v1.75h-1.75zM3.125 29.813v0.625h-1.75v-1.75h1.75zM10.688 23.75v0.75h-1.75v-1.75h1.75zM21.563 12.188v0.75h-1.688v-1.688h1.75v0.938z"></path>
</svg>
