<!-- Generated by IcoMoon.io -->
<svg version="1.1" xmlns="http://www.w3.org/2000/svg" width="32" height="32" viewBox="0 0 32 32">
<title>sad</title>
<path d="M16 31.688c8.813 0 16-7.188 16-16s-7.188-16-16-16c-8.813 0-16 7.188-16 16s7.188 16 16 16zM16 2.688c7.188 0 13 5.813 13 13s-5.813 13-13 13c-7.188 0-13-5.813-13-13s5.813-13 13-13zM8 9.688c0-1.125 0.875-2 2-2s2 0.875 2 2c0 1.125-0.875 2-2 2s-2-0.875-2-2zM20 9.688c0-1.125 0.875-2 2-2s2 0.875 2 2c0 1.125-0.875 2-2 2s-2-0.875-2-2zM10 24.063l-2.563-1.5c1.75-2.938 4.938-4.875 8.563-4.875s6.813 1.938 8.563 4.875l-2.563 1.5c-1.25-2-3.438-3.375-6-3.375s-4.75 1.375-6 3.375z"></path>
</svg>
