<!-- Generated by IcoMoon.io -->
<svg version="1.1" xmlns="http://www.w3.org/2000/svg" width="32" height="32" viewBox="0 0 32 32">
<title>search</title>
<path d="M31 26.938l-7.563-6.438c-0.813-0.75-1.625-1.063-2.313-1 1.813-2.125 2.875-4.813 2.875-7.813 0-6.625-5.375-12-12-12s-12 5.375-12 12c0 6.625 5.375 12 12 12 3 0 5.688-1.063 7.813-2.875-0.063 0.688 0.25 1.5 1 2.313l6.438 7.563c1.063 1.25 2.875 1.313 4 0.25 1.063-1.125 1-2.938-0.25-4zM12 19.688c-4.438 0-8-3.563-8-8s3.563-8 8-8c4.438 0 8 3.563 8 8s-3.563 8-8 8z"></path>
</svg>
