<!-- Generated by IcoMoon.io -->
<svg version="1.1" xmlns="http://www.w3.org/2000/svg" width="32" height="32" viewBox="0 0 32 32">
<title>spinner</title>
<path d="M6 15.688c0-0.375 0-0.75 0.063-1.125l-5.75-1.875c-0.188 1-0.313 2-0.313 3 0 4.625 1.938 8.75 5.063 11.688l3.563-4.938c-1.625-1.75-2.625-4.125-2.625-6.75zM26 15.688c0 2.625-1 5-2.625 6.75l3.563 4.938c3.125-2.938 5.063-7.063 5.063-11.688 0-1-0.125-2-0.313-3l-5.75 1.875c0.063 0.375 0.063 0.75 0.063 1.125zM18 5.875c2.875 0.625 5.313 2.438 6.688 4.875l5.813-1.875c-2.313-4.875-6.938-8.375-12.5-9.063zM7.313 10.75c1.375-2.438 3.813-4.25 6.688-4.875v-6.063c-5.563 0.688-10.188 4.188-12.5 9.063zM20.125 24.813c-1.25 0.563-2.625 0.875-4.125 0.875s-2.875-0.313-4.125-0.875l-3.563 4.875c2.25 1.313 4.875 2 7.688 2s5.438-0.688 7.688-2z"></path>
</svg>
