<!-- Generated by IcoMoon.io -->
<svg version="1.1" xmlns="http://www.w3.org/2000/svg" width="32" height="32" viewBox="0 0 32 32">
<title>spinner3</title>
<path d="M0 15.75v0c0 0 0 0 0 0 0 0.125 0 0.25 0.063 0.375 0 0 0 0.063 0 0.125s0 0.125 0 0.25c0.063 0.063 0.063 0.125 0.063 0.25s0.063 0.375 0.063 0.563c0.063 0.188 0.125 0.438 0.188 0.688 0 0.063 0.063 0.188 0.063 0.313 0.063 0.125 0.063 0.25 0.125 0.375 0 0.063 0 0.125 0 0.188 0.063 0.063 0.063 0.125 0.063 0.188 0.063 0.188 0.125 0.313 0.188 0.438 0 0.063 0 0.063 0 0.125 0 0 0 0.063 0.063 0.063 0 0.063 0 0.188 0.063 0.25 0.063 0.125 0.125 0.25 0.125 0.438 0.063 0.125 0.125 0.25 0.188 0.375s0.125 0.188 0.125 0.25c0.063 0.063 0.063 0.125 0.125 0.25s0.125 0.25 0.188 0.438c0.063 0.125 0.188 0.313 0.25 0.438 0.063 0.063 0.125 0.125 0.125 0.25 0.063 0.063 0.125 0.125 0.125 0.188 0.125 0.125 0.188 0.313 0.313 0.438 0.375 0.625 0.813 1.188 1.313 1.75s1 1.063 1.563 1.563c0.563 0.438 1.188 0.875 1.813 1.25 0.563 0.375 1.188 0.688 1.813 1 0.188 0.063 0.313 0.125 0.5 0.188 0.063 0 0.125 0.063 0.188 0.063 0.125 0.063 0.188 0.063 0.25 0.125 0.188 0 0.313 0.063 0.438 0.125 0.188 0.063 0.313 0.125 0.5 0.125 0.063 0.063 0.125 0.063 0.188 0.063 0.063 0.063 0.125 0.063 0.25 0.063 0.125 0.063 0.25 0.063 0.375 0.125 0.188 0 0.313 0.063 0.438 0.063 0.063 0 0.125 0 0.188 0.063 0.063 0 0.063 0 0.125 0 0 0 0.063 0 0.063 0 0.125 0 0.313 0.063 0.438 0.063 0.063 0 0.063 0 0.125 0 0.063 0.063 0.125 0.063 0.188 0.063 0.125 0 0.25 0 0.375 0s0.25 0.063 0.313 0.063c0 0 0 0 0.063 0 0 1.063 0.875 1.938 2 1.938 0 0 0 0 0 0v0c0 0 0 0 0 0 0.125 0 0.25 0 0.375-0.063 0.063 0 0.125 0 0.188 0s0.125 0 0.188 0c0.063-0.063 0.188-0.063 0.25-0.063 0.188 0 0.375-0.063 0.625-0.063 0.188-0.063 0.375-0.125 0.625-0.188 0.125 0 0.25 0 0.375-0.063s0.25-0.063 0.375-0.125c0.063 0 0.125 0 0.188 0 0.063-0.063 0.125-0.063 0.188-0.063 0.125-0.063 0.25-0.125 0.438-0.125 0-0.063 0.063-0.063 0.063-0.063 0.063 0 0.063 0 0.125-0.063 0.063 0 0.125 0 0.188-0.063 0.125-0.063 0.313-0.125 0.438-0.125 0.125-0.063 0.313-0.125 0.438-0.188 0.063-0.063 0.125-0.125 0.25-0.125 0.063-0.063 0.125-0.063 0.188-0.125 0.125-0.063 0.313-0.125 0.438-0.188 0.188-0.063 0.313-0.188 0.438-0.25s0.188-0.125 0.25-0.125c0.063-0.063 0.125-0.125 0.25-0.125 0.125-0.125 0.25-0.188 0.438-0.313 0.563-0.375 1.188-0.813 1.688-1.313 0.563-0.5 1.125-1 1.563-1.563 0.5-0.563 0.938-1.188 1.313-1.813 0.375-0.563 0.688-1.188 0.938-1.813 0.063-0.188 0.125-0.313 0.188-0.5 0.063-0.063 0.063-0.125 0.125-0.188 0-0.125 0.063-0.188 0.063-0.25 0.063-0.188 0.125-0.313 0.188-0.438 0-0.188 0.063-0.313 0.125-0.5 0-0.063 0-0.125 0.063-0.188 0-0.063 0-0.125 0.063-0.25 0-0.125 0.063-0.25 0.063-0.375 0.063-0.188 0.063-0.313 0.125-0.438 0-0.063 0-0.125 0-0.188s0-0.063 0-0.125c0.063 0 0.063-0.063 0.063-0.063 0-0.125 0-0.25 0.063-0.438 0-0.063 0-0.063 0-0.125s0-0.125 0-0.188 0.063-0.25 0.063-0.375c0-0.125 0-0.25 0-0.313 0 0 0-0.063 0-0.063 1.125 0 2-0.875 2-2 0 0 0-0.063 0-0.063v0c0 0 0 0 0 0 0-0.125 0-0.25-0.063-0.375 0 0 0-0.063 0-0.125s0-0.125 0-0.25c-0.063-0.063-0.063-0.125-0.063-0.25s-0.063-0.375-0.063-0.563c-0.063-0.188-0.125-0.438-0.188-0.688 0-0.063 0-0.188-0.063-0.313s-0.063-0.25-0.125-0.375c0-0.063 0-0.125 0-0.188-0.063-0.063-0.063-0.125-0.063-0.188-0.063-0.188-0.125-0.313-0.125-0.438-0.063-0.063-0.063-0.063-0.063-0.125 0 0 0-0.063-0.063-0.063 0-0.063 0-0.188-0.063-0.25-0.063-0.125-0.125-0.25-0.125-0.438-0.063-0.125-0.125-0.25-0.188-0.375s-0.125-0.188-0.125-0.25c-0.063-0.063-0.063-0.125-0.125-0.25s-0.125-0.25-0.188-0.438c-0.063-0.125-0.188-0.25-0.25-0.438-0.063-0.063-0.125-0.125-0.125-0.25-0.063-0.063-0.125-0.125-0.125-0.188-0.125-0.125-0.188-0.313-0.313-0.438-0.375-0.625-0.813-1.188-1.313-1.75s-1-1.063-1.563-1.563c-0.563-0.438-1.188-0.875-1.813-1.25-0.563-0.375-1.188-0.688-1.813-1-0.188-0.063-0.313-0.125-0.5-0.188-0.063 0-0.125-0.063-0.188-0.063-0.125-0.063-0.188-0.063-0.25-0.125-0.188 0-0.313-0.063-0.438-0.125-0.188-0.063-0.313-0.125-0.5-0.125-0.063-0.063-0.125-0.063-0.188-0.063-0.063-0.063-0.125-0.063-0.25-0.063-0.125-0.063-0.25-0.063-0.375-0.125-0.188 0-0.313-0.063-0.438-0.063-0.063 0-0.125 0-0.188-0.063-0.063 0-0.063 0-0.125 0 0 0-0.063 0-0.063 0-0.125 0-0.25-0.063-0.438-0.063-0.063 0-0.063 0-0.125 0-0.063-0.063-0.125-0.063-0.188-0.063-0.125 0-0.25 0-0.375 0s-0.25-0.063-0.313-0.063c-0.063 0-0.063 0-0.063 0-0.063-1.063-0.938-1.938-2-1.938-0.063 0-0.063 0-0.063 0v0c0 0 0 0 0 0-0.125 0-0.25 0-0.375 0.063-0.063 0-0.125 0-0.188 0s-0.125 0-0.188 0c-0.063 0.063-0.188 0.063-0.25 0.063-0.188 0-0.375 0.063-0.625 0.063-0.188 0.063-0.375 0.125-0.625 0.188-0.125 0-0.25 0.063-0.375 0.063-0.125 0.063-0.25 0.063-0.375 0.125-0.063 0-0.125 0-0.188 0-0.063 0.063-0.125 0.063-0.188 0.063-0.125 0.063-0.25 0.125-0.375 0.188-0.063 0-0.125 0-0.125 0-0.063 0-0.063 0-0.125 0.063-0.063 0-0.125 0-0.188 0.063-0.125 0.063-0.313 0.125-0.438 0.125-0.125 0.063-0.313 0.125-0.438 0.188-0.063 0.063-0.125 0.125-0.188 0.125-0.125 0.063-0.188 0.063-0.25 0.125-0.125 0.063-0.313 0.125-0.438 0.188-0.188 0.063-0.313 0.188-0.438 0.25s-0.188 0.125-0.25 0.125c-0.063 0.063-0.125 0.125-0.25 0.125-0.125 0.125-0.25 0.188-0.438 0.313-0.563 0.375-1.188 0.813-1.688 1.313-0.563 0.5-1.063 1-1.563 1.563s-0.938 1.188-1.313 1.813c-0.375 0.563-0.688 1.188-0.938 1.813-0.063 0.188-0.125 0.313-0.188 0.5-0.063 0.063-0.063 0.125-0.125 0.188 0 0.125-0.063 0.188-0.063 0.25-0.063 0.188-0.125 0.313-0.188 0.438 0 0.188-0.063 0.313-0.125 0.5 0 0.063 0 0.125-0.063 0.188 0 0.063 0 0.125-0.063 0.25 0 0.125-0.063 0.25-0.063 0.375-0.063 0.188-0.063 0.313-0.063 0.438-0.063 0.063-0.063 0.125-0.063 0.188s0 0.063 0 0.125c0 0-0.063 0.063-0.063 0.063 0 0.125 0 0.313 0 0.438-0.063 0.063-0.063 0.063-0.063 0.125s0 0.125 0 0.188 0 0.25-0.063 0.375c0 0.125 0 0.25 0 0.313 0 0 0 0.063 0 0.063-1.063 0.063-1.938 0.938-1.938 2 0 0 0 0.063 0 0.063zM2.313 13.688c0 0 0 0 0 0 0-0.125 0.063-0.188 0.063-0.313 0.063-0.125 0.063-0.188 0.125-0.313 0-0.063 0-0.125 0-0.188 0.063-0.063 0.063-0.125 0.063-0.188 0.063-0.063 0.063-0.188 0.125-0.313 0-0.063 0-0.063 0.063-0.125 0 0 0-0.063 0-0.063 0-0.063 0.063-0.125 0.063-0.188 0.063-0.125 0.125-0.25 0.188-0.375 0-0.125 0.063-0.25 0.125-0.375 0.063-0.063 0.063-0.125 0.125-0.188 0-0.063 0.063-0.125 0.063-0.188 0.063-0.125 0.125-0.25 0.188-0.375s0.188-0.25 0.25-0.438c0-0.063 0.063-0.125 0.125-0.188 0-0.063 0.063-0.125 0.125-0.188 0.063-0.125 0.125-0.25 0.188-0.375 0.375-0.5 0.75-1 1.188-1.5 0.438-0.438 0.938-0.938 1.375-1.313 0.5-0.438 1.063-0.75 1.563-1.125 0.563-0.313 1.125-0.563 1.625-0.813 0.125-0.063 0.25-0.063 0.438-0.125 0.063-0.063 0.125-0.063 0.188-0.063 0.063-0.063 0.125-0.063 0.188-0.125 0.125 0 0.25-0.063 0.375-0.125 0.125 0 0.25-0.063 0.375-0.063 0.125-0.063 0.188-0.063 0.25-0.063s0.125-0.063 0.188-0.063c0.125 0 0.188-0.063 0.313-0.063 0.125-0.063 0.25-0.063 0.375-0.063 0.063 0 0.125-0.063 0.188-0.063 0 0 0.063 0 0.063 0 0.063 0 0.063 0 0.125 0s0.188-0.063 0.313-0.063c0.063 0 0.125 0 0.125 0 0.063 0 0.125 0 0.188 0 0.125 0 0.188-0.063 0.313-0.063 0.063 0 0.188 0 0.25 0 0.188 0 0.375 0 0.563 0 0.125 0 0.25 0 0.375 0 0.063 0 0.125 0 0.188 0s0.125 0 0.188 0c0.063 0 0.125 0.063 0.188 0.063s0.188 0 0.313 0c0 0 0 0 0 0s0 0 0 0v0c1 0 1.813-0.75 1.938-1.688 0 0 0.063 0 0.063 0 0.125 0.063 0.188 0.063 0.313 0.125 0.125 0 0.188 0.063 0.313 0.063 0.063 0 0.125 0 0.188 0.063 0.063 0 0.125 0 0.188 0.063 0.063 0 0.188 0.063 0.313 0.125 0.063 0 0.063 0 0.125 0 0 0 0.063 0 0.063 0.063 0.063 0 0.125 0 0.188 0.063 0.125 0 0.25 0.063 0.375 0.125s0.25 0.125 0.375 0.188c0.063 0 0.125 0.063 0.188 0.063 0.063 0.063 0.125 0.063 0.188 0.125 0.125 0.063 0.25 0.125 0.375 0.188s0.25 0.125 0.438 0.188c0.063 0.063 0.125 0.063 0.188 0.125s0.125 0.063 0.188 0.125 0.25 0.188 0.375 0.25c0.5 0.375 1 0.75 1.5 1.188 0.438 0.438 0.875 0.875 1.313 1.375s0.75 1 1.125 1.563c0.313 0.5 0.563 1.063 0.813 1.625 0.063 0.125 0.063 0.25 0.125 0.375 0.063 0.063 0.063 0.125 0.063 0.188 0.063 0.063 0.063 0.125 0.125 0.188 0 0.188 0.063 0.313 0.125 0.438 0 0.125 0.063 0.25 0.063 0.375 0.063 0.063 0.063 0.125 0.063 0.188s0.063 0.125 0.063 0.188c0 0.125 0.063 0.25 0.063 0.375 0.063 0.125 0.063 0.25 0.063 0.375 0 0.063 0.063 0.063 0.063 0.125s0 0.063 0 0.125c0 0 0 0.063 0 0.063 0 0.125 0.063 0.25 0.063 0.313s0 0.125 0 0.188c0 0.063 0 0.125 0 0.125 0 0.125 0.063 0.25 0.063 0.313 0 0.125 0 0.188 0 0.313 0 0.188 0 0.313 0 0.5 0 0.125 0 0.25 0 0.375 0 0.063 0 0.125 0 0.188s0 0.125 0 0.188c0 0.063-0.063 0.125-0.063 0.188 0 0.125 0 0.188 0 0.313 0 0 0 0 0 0.063 0 0 0 0 0 0v0c0 0.938 0.75 1.75 1.625 1.875 0 0.063 0 0.063 0 0.063 0 0.125-0.063 0.188-0.063 0.313s-0.063 0.188-0.063 0.313c-0.063 0.063-0.063 0.125-0.063 0.188-0.063 0.063-0.063 0.125-0.063 0.188-0.063 0.063-0.063 0.188-0.125 0.313 0 0.063 0 0.063 0 0.125-0.063 0-0.063 0.063-0.063 0.063 0 0.063-0.063 0.125-0.063 0.188-0.063 0.125-0.125 0.25-0.125 0.375-0.063 0.125-0.125 0.25-0.188 0.375-0.063 0.063-0.063 0.125-0.125 0.188 0 0.063-0.063 0.125-0.063 0.188-0.063 0.125-0.125 0.25-0.188 0.375s-0.188 0.25-0.25 0.438c0 0.063-0.063 0.125-0.125 0.188 0 0.063-0.063 0.125-0.063 0.188-0.125 0.125-0.188 0.25-0.25 0.375-0.375 0.5-0.75 1-1.188 1.5-0.438 0.438-0.875 0.938-1.375 1.313-0.5 0.438-1.063 0.75-1.563 1.125-0.563 0.313-1.125 0.563-1.625 0.813-0.125 0.063-0.25 0.063-0.438 0.125-0.063 0.063-0.125 0.063-0.188 0.063-0.063 0.063-0.125 0.063-0.188 0.125-0.125 0-0.25 0.063-0.375 0.125-0.125 0-0.25 0.063-0.375 0.063-0.063 0.063-0.125 0.063-0.188 0.063s-0.125 0.063-0.188 0.063c-0.125 0-0.25 0.063-0.375 0.063-0.125 0.063-0.25 0.063-0.375 0.063-0.063 0-0.125 0.063-0.188 0.063 0 0-0.063 0-0.063 0-0.063 0-0.063 0-0.125 0s-0.188 0.063-0.313 0.063c-0.063 0-0.125 0-0.125 0-0.063 0-0.125 0-0.188 0-0.125 0-0.188 0.063-0.313 0.063-0.063 0-0.188 0-0.25 0-0.188 0-0.375 0-0.5 0-0.188 0-0.313 0-0.438 0-0.063 0-0.125 0-0.188 0s-0.125 0-0.188 0c-0.063 0-0.125-0.063-0.125-0.063-0.125 0-0.25 0-0.313 0s-0.063 0-0.063 0 0 0 0 0v0c-1 0-1.813 0.75-1.938 1.688-0.125-0.063-0.188-0.063-0.313-0.125-0.125 0-0.188-0.063-0.313-0.063-0.063 0-0.125 0-0.188-0.063-0.063 0-0.125 0-0.188-0.063-0.063 0-0.188-0.063-0.313-0.125-0.063 0-0.063 0-0.125 0 0 0-0.063 0-0.063-0.063-0.063 0-0.125 0-0.188-0.063-0.125 0-0.25-0.063-0.375-0.125s-0.25-0.125-0.375-0.188c-0.063 0-0.125-0.063-0.188-0.063-0.063-0.063-0.125-0.063-0.188-0.125-0.125-0.063-0.25-0.125-0.375-0.188s-0.25-0.125-0.438-0.188c-0.063-0.063-0.125-0.063-0.188-0.125s-0.125-0.063-0.188-0.125-0.25-0.188-0.375-0.25c-0.5-0.375-1-0.75-1.5-1.188-0.438-0.438-0.875-0.875-1.313-1.375s-0.75-1-1.125-1.563c-0.313-0.5-0.563-1.063-0.813-1.625-0.063-0.125-0.063-0.25-0.125-0.375-0.063-0.063-0.063-0.125-0.063-0.188-0.063-0.063-0.063-0.125-0.125-0.188 0-0.188-0.063-0.313-0.125-0.438 0-0.125-0.063-0.25-0.063-0.375-0.063-0.063-0.063-0.125-0.063-0.188s-0.063-0.125-0.063-0.188c0-0.125-0.063-0.25-0.063-0.375-0.063-0.125-0.063-0.25-0.063-0.375 0-0.063-0.063-0.063-0.063-0.125s0-0.063 0-0.125c0 0 0-0.063 0-0.063 0-0.125-0.063-0.25-0.063-0.313s0-0.125 0-0.188c0-0.063 0-0.125 0-0.125 0-0.125-0.063-0.25-0.063-0.313 0-0.125 0-0.188 0-0.313 0-0.188 0-0.313 0-0.5 0-0.125 0-0.25 0-0.375 0-0.063 0-0.125 0-0.188s0-0.125 0-0.188c0-0.063 0.063-0.125 0.063-0.188 0-0.125 0-0.188 0-0.313 0 0 0 0 0-0.063 0 0 0 0 0 0v0c0-0.938-0.75-1.75-1.688-1.938z"></path>
</svg>
