<!-- Generated by IcoMoon.io -->
<svg version="1.1" xmlns="http://www.w3.org/2000/svg" width="32" height="32" viewBox="0 0 32 32">
<title>updates</title>
<path d="M22.313 16.563c0 0.125-0.063 0.25-0.188 0.438l-5.688 5.688c-0.188 0.063-0.313 0.125-0.438 0.125s-0.313-0.063-0.438-0.125l-5.688-5.75c-0.188-0.188-0.25-0.375-0.125-0.625 0.063-0.25 0.25-0.313 0.563-0.313h3.375v-6.313c0-0.188 0.063-0.313 0.188-0.438 0.125-0.063 0.25-0.125 0.438-0.125h3.375c0.188 0 0.313 0.063 0.438 0.125 0.125 0.125 0.188 0.25 0.188 0.438v6.313h3.375c0.188 0 0.313 0 0.438 0.125s0.188 0.25 0.188 0.438zM16 6.25c-1.75 0-3.375 0.438-4.875 1.313s-2.688 2.063-3.563 3.563c-0.875 1.438-1.25 3.063-1.25 4.875 0 1.75 0.375 3.375 1.25 4.875 0.875 1.438 2.063 2.625 3.563 3.5s3.125 1.313 4.875 1.313c1.75 0 3.375-0.438 4.875-1.313s2.688-2.063 3.563-3.5c0.813-1.5 1.25-3.125 1.25-4.875 0-1.813-0.438-3.438-1.25-4.875-0.875-1.5-2.063-2.688-3.563-3.563s-3.125-1.313-4.875-1.313zM29.688 16c0 2.438-0.563 4.75-1.813 6.875-1.25 2.063-2.875 3.75-5 5-2.125 1.188-4.375 1.813-6.875 1.813s-4.813-0.625-6.875-1.813c-2.125-1.25-3.75-2.938-5-5-1.25-2.125-1.813-4.438-1.813-6.875 0-2.5 0.563-4.813 1.813-6.938 1.25-2.063 2.875-3.75 5-4.938 2.063-1.25 4.375-1.875 6.875-1.875s4.75 0.625 6.875 1.875c2.125 1.188 3.75 2.875 5 4.938 1.25 2.125 1.813 4.438 1.813 6.938z"></path>
</svg>
