<!-- Generated by IcoMoon.io -->
<svg version="1.1" xmlns="http://www.w3.org/2000/svg" width="32" height="32" viewBox="0 0 32 32">
<title>warning</title>
<path d="M16 2.563l13.438 26.75h-26.875zM16-0.313c-0.688 0-1.375 0.438-1.875 1.375l-13.688 27.25c-1.063 1.875-0.125 3.375 2 3.375h27.125c2.125 0 3.063-1.5 2-3.375l-13.688-27.25c-0.5-0.938-1.188-1.375-1.875-1.375zM18 25.688c0 1.125-0.875 2-2 2s-2-0.875-2-2c0-1.125 0.875-2 2-2s2 0.875 2 2zM16 21.688c-1.125 0-2-0.875-2-2v-6c0-1.125 0.875-2 2-2s2 0.875 2 2v6c0 1.125-0.875 2-2 2z"></path>
</svg>
